<?xml version="1.0" standalone="no"?><!DOCTYPE svg PUBLIC "-//W3C//DTD SVG 1.1//EN" "http://www.w3.org/Graphics/SVG/1.1/DTD/svg11.dtd"><svg t="1593705699008" class="icon" viewBox="0 0 1024 1024" version="1.1" xmlns="http://www.w3.org/2000/svg" p-id="706" xmlns:xlink="http://www.w3.org/1999/xlink" width="200" height="200"><defs><style type="text/css"></style></defs><path d="M868.266667 571.733333c-12.8-61.866667-42.666667-125.866667-117.333334-196.266666 0 0-66.133333-53.333333-89.6-57.6-4.266667-2.133333 72.533333-38.4 89.6-89.6 17.066667-51.2-32-96-93.866666-96-14.933333 0-27.733333 2.133333-38.4 6.4-6.4 2.133333-10.666667 4.266667-12.8 6.4-2.133333 0-6.4 0-8.533334-2.133334-4.266667-6.4-12.8-14.933333-21.333333-23.466666-17.066667-14.933333-38.4-21.333333-61.866667-21.333334h-4.266666c-23.466667 0-44.8 6.4-61.866667 21.333334-10.666667 8.533333-17.066667 17.066667-21.333333 23.466666-2.133333 2.133333-6.4 4.266667-8.533334 2.133334l-12.8-6.4c-10.666667-4.266667-25.6-6.4-38.4-6.4-61.866667 0-108.8 44.8-93.866666 96 17.066667 51.2 93.866667 87.466667 89.6 89.6-23.466667 4.266667-89.6 57.6-89.6 57.6-74.666667 70.4-104.533333 132.266667-117.333334 196.266666-25.6 119.466667-32 356.266667 349.866667 356.266667h10.666667c384 0 377.6-236.8 352-356.266667zM409.6 298.666667c21.333333 4.266667 132.266667 21.333333 202.666667 2.133333 10.666667-2.133333 23.466667 4.266667 25.6 14.933333s-4.266667 23.466667-14.933334 25.6c-27.733333 6.4-59.733333 10.666667-91.733333 10.666667-55.466667 0-108.8-8.533333-128-10.666667-10.666667-2.133333-19.2-12.8-17.066667-25.6s12.8-19.2 23.466667-17.066666z m228.266667 343.466666c12.8 0 21.333333 8.533333 21.333333 21.333334s-8.533333 21.333333-21.333333 21.333333H533.333333v119.466667c0 12.8-8.533333 21.333333-21.333333 21.333333s-21.333333-8.533333-21.333333-21.333333v-119.466667h-102.4c-12.8 0-21.333333-8.533333-21.333334-21.333333s8.533333-21.333333 21.333334-21.333334H490.666667v-53.333333h-102.4c-12.8 0-21.333333-8.533333-21.333334-21.333333s8.533333-21.333333 21.333334-21.333334h72.533333L384 465.066667c-8.533333-8.533333-8.533333-21.333333 0-29.866667 8.533333-8.533333 21.333333-8.533333 29.866667 0l100.266666 102.4 100.266667-102.4c8.533333-8.533333 21.333333-8.533333 29.866667 0s8.533333 21.333333 0 29.866667l-78.933334 81.066666h72.533334c12.8 0 21.333333 8.533333 21.333333 21.333334s-8.533333 21.333333-21.333333 21.333333H533.333333v53.333333h104.533334z" p-id="707"></path></svg>